<?xml version="1.0" encoding="UTF-8"?>
<svg xmlns="http://www.w3.org/2000/svg" xmlns:xlink="http://www.w3.org/1999/xlink" width="100px" height="93px" viewBox="0 0 99 93" version="1.1">
<g id="surface1">
<path style=" stroke:none;fill-rule:nonzero;fill:rgb(94.901961%,94.901961%,94.901961%);fill-opacity:1;" d="M 66.710938 65.988281 L 31.207031 65.988281 C 28.222656 65.988281 25.796875 63.539062 25.796875 60.527344 L 25.796875 24.71875 C 25.796875 21.707031 28.222656 19.257812 31.207031 19.257812 L 66.710938 19.257812 C 69.695312 19.257812 72.121094 21.707031 72.121094 24.71875 L 72.121094 60.527344 C 72.121094 63.539062 69.695312 65.988281 66.710938 65.988281 Z M 31.207031 20.132812 C 28.699219 20.132812 26.664062 22.183594 26.664062 24.71875 L 26.664062 60.527344 C 26.664062 63.0625 28.699219 65.113281 31.207031 65.113281 L 56.078125 65.113281 C 64.460938 65.113281 71.257812 58.257812 71.257812 49.800781 L 71.257812 24.71875 C 71.257812 22.183594 69.222656 20.132812 66.710938 20.132812 Z M 31.207031 20.132812 "/>
<path style=" stroke:none;fill-rule:nonzero;fill:rgb(94.901961%,94.901961%,94.901961%);fill-opacity:1;" d="M 35.035156 23.855469 C 33.355469 23.855469 31.988281 25.234375 31.988281 26.929688 L 31.988281 31.742188 C 31.988281 33.4375 33.355469 34.816406 35.035156 34.816406 L 39.804688 34.816406 C 41.484375 34.816406 42.851562 33.4375 42.851562 31.742188 L 42.851562 26.929688 C 42.851562 25.234375 41.484375 23.855469 39.804688 23.855469 Z M 35.035156 23.855469 "/>
<path style=" stroke:none;fill-rule:nonzero;fill:rgb(94.901961%,94.901961%,94.901961%);fill-opacity:1;" d="M 35.035156 37.398438 C 33.355469 37.398438 31.988281 38.777344 31.988281 40.472656 L 31.988281 45.285156 C 31.988281 46.980469 33.355469 48.359375 35.035156 48.359375 L 39.804688 48.359375 C 41.484375 48.359375 42.851562 46.980469 42.851562 45.285156 L 42.851562 40.472656 C 42.851562 38.777344 41.484375 37.398438 39.804688 37.398438 Z M 35.035156 37.398438 "/>
<path style=" stroke:none;fill-rule:nonzero;fill:rgb(94.901961%,94.901961%,94.901961%);fill-opacity:1;" d="M 35.035156 50.945312 C 33.355469 50.945312 31.988281 52.320312 31.988281 54.015625 L 31.988281 58.828125 C 31.988281 60.523438 33.355469 61.902344 35.035156 61.902344 L 39.804688 61.902344 C 41.484375 61.902344 42.851562 60.523438 42.851562 58.828125 L 42.851562 54.015625 C 42.851562 52.320312 41.484375 50.945312 39.804688 50.945312 Z M 35.035156 50.945312 "/>
<path style=" stroke:none;fill-rule:nonzero;fill:rgb(42.352941%,38.823529%,100%);fill-opacity:1;" d="M 38.199219 12.117188 C 36.082031 12.117188 34.359375 13.855469 34.359375 15.992188 L 34.359375 22.054688 C 34.359375 24.1875 36.082031 25.925781 38.199219 25.925781 L 44.207031 25.925781 C 46.324219 25.925781 48.046875 24.1875 48.046875 22.054688 L 48.046875 15.992188 C 48.046875 13.855469 46.324219 12.117188 44.207031 12.117188 Z M 38.199219 12.117188 "/>
<path style=" stroke:none;fill-rule:nonzero;fill:rgb(42.352941%,38.823529%,100%);fill-opacity:1;" d="M 57.984375 29.058594 C 55.867188 29.058594 54.144531 30.796875 54.144531 32.933594 L 54.144531 38.992188 C 54.144531 41.128906 55.867188 42.867188 57.984375 42.867188 L 63.992188 42.867188 C 66.109375 42.867188 67.832031 41.128906 67.832031 38.992188 L 67.832031 32.933594 C 67.832031 30.796875 66.109375 29.058594 63.992188 29.058594 Z M 57.984375 29.058594 "/>
<path style=" stroke:none;fill-rule:nonzero;fill:rgb(62.745098%,38.039216%,41.568627%);fill-opacity:1;" d="M 49.382812 90.074219 L 48.160156 90.066406 L 47.621094 85.203125 L 49.421875 85.21875 Z M 49.382812 90.074219 "/>
<path style=" stroke:none;fill-rule:nonzero;fill:rgb(18.431373%,18.039216%,25.490196%);fill-opacity:1;" d="M 45.472656 92.035156 C 45.46875 92.335938 45.710938 92.585938 46.011719 92.589844 L 48.441406 92.609375 L 48.863281 91.742188 L 49.019531 92.613281 L 49.9375 92.621094 L 49.707031 89.507812 L 49.386719 89.488281 L 48.085938 89.394531 L 47.667969 89.367188 L 47.660156 90.25 L 45.710938 91.582031 C 45.5625 91.683594 45.472656 91.855469 45.472656 92.035156 Z M 45.472656 92.035156 "/>
<path style=" stroke:none;fill-rule:nonzero;fill:rgb(62.745098%,38.039216%,41.568627%);fill-opacity:1;" d="M 55.59375 90.074219 L 54.375 90.066406 L 53.832031 85.203125 L 55.632812 85.21875 Z M 55.59375 90.074219 "/>
<path style=" stroke:none;fill-rule:nonzero;fill:rgb(18.431373%,18.039216%,25.490196%);fill-opacity:1;" d="M 51.683594 92.035156 C 51.679688 92.335938 51.921875 92.585938 52.222656 92.589844 L 54.652344 92.609375 L 55.078125 91.742188 L 55.234375 92.613281 L 56.148438 92.621094 L 55.917969 89.507812 L 55.597656 89.488281 L 54.300781 89.394531 L 53.878906 89.367188 L 53.871094 90.25 L 51.921875 91.582031 C 51.773438 91.683594 51.683594 91.855469 51.683594 92.035156 Z M 51.683594 92.035156 "/>
<path style=" stroke:none;fill-rule:nonzero;fill:rgb(18.431373%,18.039216%,25.490196%);fill-opacity:1;" d="M 44.589844 50.777344 L 49.539062 50.933594 L 54.230469 51.984375 C 54.230469 51.984375 53.757812 52.5625 55.324219 54.140625 C 55.324219 54.140625 57.40625 57.816406 55.949219 61.390625 L 55.324219 75.683594 C 55.324219 75.683594 57.144531 85.757812 55.753906 88.964844 L 53.910156 89.082031 L 50.796875 75.800781 L 49.28125 61.496094 L 48.550781 75.578125 C 48.550781 75.578125 51.339844 85.242188 49.578125 89.082031 L 47.585938 88.964844 L 44.175781 75.578125 C 44.175781 75.578125 42.714844 60.128906 42.925781 57.1875 C 43.132812 54.242188 44.589844 50.777344 44.589844 50.777344 Z M 44.589844 50.777344 "/>
<path style=" stroke:none;fill-rule:nonzero;fill:rgb(62.745098%,38.039216%,41.568627%);fill-opacity:1;" d="M 61.210938 28.191406 C 60.535156 28.367188 60.128906 29.0625 60.304688 29.746094 C 60.382812 30.058594 60.574219 30.3125 60.816406 30.480469 L 60.816406 30.484375 L 60.722656 32.828125 L 62.5 33.660156 L 62.644531 30.050781 L 62.628906 30.050781 C 62.785156 29.773438 62.839844 29.4375 62.753906 29.105469 C 62.578125 28.425781 61.886719 28.015625 61.210938 28.191406 Z M 61.210938 28.191406 "/>
<path style=" stroke:none;fill-rule:nonzero;fill:rgb(24.705882%,23.921569%,33.72549%);fill-opacity:1;" d="M 51.269531 36.558594 C 50.894531 36.1875 50.679688 35.679688 50.667969 35.128906 C 50.660156 34.390625 51.027344 33.71875 51.652344 33.335938 C 52.371094 32.890625 53.273438 32.9375 53.949219 33.449219 L 59.535156 37.691406 L 60.527344 31.578125 L 62.667969 32.273438 L 62.15625 40.230469 C 62.121094 40.789062 61.808594 41.277344 61.320312 41.542969 C 60.835938 41.808594 60.257812 41.800781 59.777344 41.527344 L 51.703125 36.894531 C 51.542969 36.800781 51.394531 36.6875 51.269531 36.558594 Z M 51.269531 36.558594 "/>
<path style=" stroke:none;fill-rule:nonzero;fill:rgb(62.745098%,38.039216%,41.568627%);fill-opacity:1;" d="M 42.75 24.773438 C 43.109375 25.378906 42.910156 26.160156 42.308594 26.523438 C 42.035156 26.6875 41.722656 26.734375 41.429688 26.679688 L 39.859375 28.414062 L 38.019531 27.738281 L 40.4375 25.074219 L 40.445312 25.085938 C 40.527344 24.777344 40.722656 24.503906 41.015625 24.328125 C 41.617188 23.96875 42.394531 24.167969 42.75 24.773438 Z M 42.75 24.773438 "/>
<path style=" stroke:none;fill-rule:nonzero;fill:rgb(24.705882%,23.921569%,33.72549%);fill-opacity:1;" d="M 43.429688 37.703125 L 34.460938 35.261719 C 33.929688 35.113281 33.511719 34.710938 33.351562 34.175781 C 33.191406 33.640625 33.3125 33.070312 33.675781 32.652344 L 38.867188 26.636719 L 40.871094 27.664062 L 37.3125 32.710938 L 44.238281 33.664062 C 45.074219 33.777344 45.746094 34.386719 45.949219 35.214844 C 46.125 35.929688 45.917969 36.667969 45.394531 37.183594 C 45.003906 37.570312 44.496094 37.777344 43.96875 37.777344 C 43.789062 37.777344 43.609375 37.753906 43.429688 37.703125 Z M 43.429688 37.703125 "/>
<path style=" stroke:none;fill-rule:nonzero;fill:rgb(24.705882%,23.921569%,33.72549%);fill-opacity:1;" d="M 56.210938 52.878906 L 43.671875 53.457031 C 43.328125 52.929688 43.421875 52.136719 43.902344 51.144531 C 45.726562 47.394531 44.34375 40.300781 43.410156 36.605469 C 43.152344 35.570312 43.851562 34.539062 44.90625 34.433594 L 46.089844 34.3125 L 47.179688 30.949219 L 51.007812 30.949219 L 52.597656 32.777344 L 55.292969 34.429688 C 54.800781 39.527344 52.710938 46.722656 55.6875 50.332031 C 56.339844 51.121094 56.523438 51.972656 56.210938 52.878906 Z M 56.210938 52.878906 "/>
<path style=" stroke:none;fill-rule:nonzero;fill:rgb(62.745098%,38.039216%,41.568627%);fill-opacity:1;" d="M 52.335938 27.265625 C 52.335938 29.34375 50.667969 31.027344 48.609375 31.027344 C 46.550781 31.027344 44.878906 29.34375 44.878906 27.265625 C 44.878906 25.1875 46.550781 23.503906 48.609375 23.503906 C 50.667969 23.503906 52.335938 25.1875 52.335938 27.265625 Z M 52.335938 27.265625 "/>
<path style=" stroke:none;fill-rule:nonzero;fill:rgb(18.431373%,18.039216%,25.490196%);fill-opacity:1;" d="M 52.828125 24.859375 C 53.34375 22.949219 47.691406 21.316406 46.59375 22.851562 C 46.441406 22.632812 45.875 22.5 45.617188 22.566406 C 45.359375 22.632812 45.140625 22.800781 44.929688 22.964844 C 44.636719 23.191406 44.332031 23.425781 44.152344 23.75 C 43.972656 24.074219 43.945312 24.515625 44.1875 24.796875 C 44.382812 25.023438 44.71875 26.210938 45.007812 26.269531 C 45.210938 26.3125 45.382812 26.34375 45.527344 26.367188 C 45.65625 26.175781 45.988281 25.9375 45.964844 25.703125 C 46.160156 25.835938 46.089844 26.066406 46.050781 26.304688 C 45.917969 27.089844 42.945312 33.175781 44.648438 31.382812 C 44.816406 31.484375 45.023438 31.578125 45.265625 31.664062 C 45.671875 31.042969 46.007812 30.308594 46.230469 29.546875 L 46.230469 29.558594 C 46.304688 30.222656 46.789062 30.769531 47.425781 30.957031 C 49.980469 31.703125 52.050781 30.605469 52.761719 28.628906 C 52.5 28.097656 52.386719 28.15625 52.410156 28.140625 C 52.734375 27.917969 53.183594 28.0625 53.320312 28.433594 C 53.363281 28.539062 53.398438 28.632812 53.433594 28.703125 C 53.804688 27.367188 54.242188 27.558594 52.828125 24.859375 Z M 52.828125 24.859375 "/>
<path style=" stroke:none;fill-rule:nonzero;fill:rgb(18.431373%,18.039216%,25.490196%);fill-opacity:1;" d="M 51.0625 23.476562 L 50.800781 22.128906 C 50.78125 22.015625 50.757812 21.890625 50.808594 21.789062 C 50.875 21.65625 51.042969 21.601562 51.1875 21.621094 C 51.332031 21.644531 51.441406 21.777344 51.585938 21.804688 C 52.089844 21.890625 52.753906 21.390625 52.933594 22.660156 C 53.007812 23.1875 53.847656 23.242188 54.125 23.699219 C 54.402344 24.152344 54.4375 24.804688 54.058594 25.175781 C 53.753906 25.472656 53.265625 25.507812 52.867188 25.355469 C 52.472656 25.203125 52.15625 24.898438 51.878906 24.578125 C 51.601562 24.253906 51.351562 23.90625 51.03125 23.625 "/>
<path style=" stroke:none;fill-rule:nonzero;fill:rgb(42.352941%,38.823529%,100%);fill-opacity:1;" d="M 53.027344 25.523438 C 52.003906 25.378906 51.308594 25.003906 50.960938 24.410156 C 50.5 23.632812 50.808594 22.777344 50.820312 22.738281 L 51.035156 22.820312 C 51.035156 22.828125 50.753906 23.613281 51.15625 24.292969 C 51.472656 24.824219 52.109375 25.160156 53.058594 25.292969 Z M 53.027344 25.523438 "/>
<path style=" stroke:none;fill-rule:nonzero;fill:rgb(42.352941%,38.823529%,100%);fill-opacity:1;" d="M 57.8125 10.972656 C 54.8125 10.972656 52.375 8.511719 52.375 5.484375 C 52.375 2.460938 54.8125 0 57.8125 0 C 60.8125 0 63.25 2.460938 63.25 5.484375 C 63.25 8.511719 60.8125 10.972656 57.8125 10.972656 Z M 57.8125 2.195312 C 56.011719 2.195312 54.550781 3.671875 54.550781 5.484375 C 54.550781 7.300781 56.011719 8.777344 57.8125 8.777344 C 59.613281 8.777344 61.074219 7.300781 61.074219 5.484375 C 61.074219 3.671875 59.613281 2.195312 57.8125 2.195312 Z M 57.8125 2.195312 "/>
<path style=" stroke:none;fill-rule:nonzero;fill:rgb(42.352941%,38.823529%,100%);fill-opacity:1;" d="M 66.179688 14.699219 C 65.914062 14.699219 65.648438 14.601562 65.4375 14.402344 L 60.332031 9.578125 C 59.894531 9.164062 59.871094 8.46875 60.28125 8.027344 C 60.691406 7.585938 61.382812 7.5625 61.820312 7.976562 L 66.925781 12.804688 C 67.363281 13.21875 67.386719 13.910156 66.972656 14.355469 C 66.761719 14.585938 66.472656 14.699219 66.179688 14.699219 Z M 66.179688 14.699219 "/>
<path style=" stroke:none;fill-rule:nonzero;fill:rgb(94.901961%,94.901961%,94.901961%);fill-opacity:1;" d="M 89.253906 89.953125 C 89.621094 89.976562 89.828125 89.511719 89.546875 89.242188 L 89.519531 89.132812 C 89.523438 89.121094 89.527344 89.113281 89.53125 89.105469 C 89.902344 88.203125 91.171875 88.210938 91.542969 89.113281 C 91.871094 89.910156 92.289062 90.710938 92.394531 91.558594 C 92.441406 91.929688 92.417969 92.3125 92.335938 92.675781 C 93.109375 90.976562 93.515625 89.121094 93.515625 87.257812 C 93.515625 86.789062 93.488281 86.320312 93.4375 85.851562 C 93.394531 85.46875 93.335938 85.089844 93.257812 84.710938 C 92.847656 82.675781 91.953125 80.734375 90.664062 79.113281 C 90.042969 78.773438 89.527344 78.238281 89.214844 77.597656 C 89.101562 77.367188 89.015625 77.121094 88.972656 76.867188 C 89.042969 76.875 89.238281 75.792969 89.183594 75.726562 C 89.285156 75.574219 89.460938 75.5 89.566406 75.355469 C 90.101562 74.625 90.835938 74.75 91.21875 75.742188 C 92.039062 76.160156 92.046875 76.851562 91.546875 77.519531 C 91.226562 77.941406 91.179688 78.515625 90.898438 78.96875 C 90.929688 79.007812 90.960938 79.042969 90.988281 79.082031 C 91.519531 79.765625 91.976562 80.503906 92.363281 81.277344 C 92.253906 80.417969 92.414062 79.382812 92.691406 78.710938 C 93.003906 77.949219 93.589844 77.308594 94.105469 76.652344 C 94.726562 75.859375 96 76.207031 96.109375 77.207031 C 96.109375 77.21875 96.109375 77.226562 96.113281 77.238281 C 96.035156 77.28125 95.960938 77.328125 95.886719 77.375 C 95.46875 77.65625 95.613281 78.3125 96.109375 78.386719 L 96.121094 78.390625 C 96.089844 78.667969 96.042969 78.945312 95.976562 79.214844 C 96.636719 81.800781 95.207031 82.742188 93.164062 82.785156 C 93.117188 82.808594 93.074219 82.832031 93.03125 82.855469 C 93.238281 83.441406 93.402344 84.046875 93.523438 84.65625 C 93.632812 85.195312 93.710938 85.742188 93.753906 86.289062 C 93.808594 86.980469 93.800781 87.675781 93.746094 88.367188 L 93.746094 88.34375 C 93.894531 87.582031 94.304688 86.871094 94.898438 86.378906 C 95.785156 85.648438 97.035156 85.375 97.988281 84.785156 C 98.449219 84.503906 99.039062 84.871094 98.957031 85.40625 L 98.953125 85.433594 C 98.8125 85.492188 98.671875 85.558594 98.539062 85.636719 C 98.460938 85.679688 98.386719 85.726562 98.3125 85.773438 C 97.894531 86.054688 98.039062 86.707031 98.535156 86.785156 L 98.546875 86.789062 C 98.554688 86.789062 98.5625 86.789062 98.570312 86.789062 C 98.328125 87.375 97.988281 87.917969 97.5625 88.386719 C 97.148438 90.640625 95.367188 90.855469 93.464844 90.199219 L 93.460938 90.199219 C 93.253906 91.113281 92.949219 92.007812 92.558594 92.859375 L 89.332031 92.859375 C 89.320312 92.820312 89.3125 92.785156 89.300781 92.75 C 89.597656 92.765625 89.898438 92.75 90.195312 92.695312 C 89.953125 92.398438 89.714844 92.101562 89.476562 91.804688 C 89.46875 91.796875 89.464844 91.792969 89.460938 91.785156 C 89.339844 91.636719 89.214844 91.484375 89.09375 91.332031 C 89.085938 90.867188 89.144531 90.402344 89.253906 89.953125 Z M 89.253906 89.953125 "/>
<path style=" stroke:none;fill-rule:nonzero;fill:rgb(80%,80%,80%);fill-opacity:1;" d="M 0 92.867188 C 0 92.988281 0.09375 93.082031 0.214844 93.082031 L 98.726562 93.082031 C 98.847656 93.082031 98.941406 92.988281 98.941406 92.867188 C 98.941406 92.75 98.847656 92.652344 98.726562 92.652344 L 0.214844 92.652344 C 0.09375 92.652344 0 92.75 0 92.867188 Z M 0 92.867188 "/>
</g>
</svg>
